<?xml version="1.0" encoding="UTF-8" standalone="no"?>
<!-- Created with Inkscape (http://www.inkscape.org/) -->

<svg
   xmlns:dc="http://purl.org/dc/elements/1.1/"
   xmlns:cc="http://creativecommons.org/ns#"
   xmlns:rdf="http://www.w3.org/1999/02/22-rdf-syntax-ns#"
   xmlns:svg="http://www.w3.org/2000/svg"
   xmlns="http://www.w3.org/2000/svg"
   xmlns:sodipodi="http://sodipodi.sourceforge.net/DTD/sodipodi-0.dtd"
   xmlns:inkscape="http://www.inkscape.org/namespaces/inkscape"
   width="48"
   height="48"
   id="svg6328"
   version="1.1"
   inkscape:version="0.48.3.1 r9886"
   sodipodi:docname="ic_menu_genpass.svg"
   inkscape:export-filename="../res/drawable-mdpi/ic_menu_genpass_light.png"
   inkscape:export-xdpi="60"
   inkscape:export-ydpi="60">
  <defs
     id="defs6330" />
  <sodipodi:namedview
     id="base"
     pagecolor="#ffffff"
     bordercolor="#666666"
     borderopacity="1.0"
     inkscape:pageopacity="0.0"
     inkscape:pageshadow="2"
     inkscape:zoom="5.6"
     inkscape:cx="19.20832"
     inkscape:cy="21.026779"
     inkscape:document-units="px"
     inkscape:current-layer="layer1"
     showgrid="false"
     fit-margin-top="0"
     fit-margin-left="0"
     fit-margin-right="0"
     fit-margin-bottom="0"
     showguides="false"
     inkscape:guide-bbox="true">
    <sodipodi:guide
       orientation="1,0"
       position="24.017857,0.3125"
       id="guide6373" />
  </sodipodi:namedview>
  <metadata
     id="metadata6333">
    <rdf:RDF>
      <cc:Work
         rdf:about="">
        <dc:format>image/svg+xml</dc:format>
        <dc:type
           rdf:resource="http://purl.org/dc/dcmitype/StillImage" />
        <dc:title></dc:title>
      </cc:Work>
    </rdf:RDF>
  </metadata>
  <g
     inkscape:label="Layer 1"
     inkscape:groupmode="layer"
     id="layer1"
     transform="translate(-255.79834,-391.57954)">
    <g
       id="g6364"
       transform="matrix(0.85840686,0,0,0.85840686,41.327886,56.521265)"
       style="fill:#000000;opacity:0.50000000000000000">
      <path
         inkscape:connector-curvature="0"
         id="path5407"
         d="m 277.82666,396.57954 c -6.19725,-0.14775 -12.41457,2.36714 -16.78125,7.40625 -7.76299,8.95843 -6.80293,22.58011 2.15625,30.34375 3.98245,3.45102 8.99845,5.24219 14.0625,5.25 l 0,-7 c -3.41165,-0.008 -6.78558,-1.23738 -9.46875,-3.5625 -6.04282,-5.23645 -6.7052,-14.39469 -1.46875,-20.4375 5.23514,-6.04131 14.42593,-6.7052 20.46875,-1.46875 2.88991,2.50428 4.71343,6.35742 4.96875,10.375 l -6.03125,-0.0312 9.9375,9.9375 8.53125,-9.8125 -5.40625,-0.0312 c -0.24955,-6.02918 -3.03764,-11.90602 -7.4375,-15.71875 -3.91964,-3.39659 -8.71116,-5.13509 -13.53125,-5.25 z"
         style="fill:#000000" />
      <g
         id="Key"
         transform="matrix(0.56130149,0,0,0.56130149,94.247939,72.33372)"
         style="fill:#000000">
        <g
           id="g5583"
           style="fill:#000000">
          <g
             id="g5585"
             style="fill:#000000">
            <path
               id="path5587"
               d="m 336.734,614.769 1.322,1.322 c 0.329,-0.379 0.589,-0.836 0.783,-1.322 h -2.105 z"
               inkscape:connector-curvature="0"
               style="fill:#000000" />
          </g>
          <path
             id="path5589"
             d="m 338.778,610.616 c 0,0 -0.669,-1.309 -4.473,-5.609 -3.804,-4.299 -6.306,-6.512 -6.306,-6.512 -1.467,-1.297 -3.858,-1.287 -5.315,0.021 0,0 -5.125,4.621 -7.711,6.951 -2.586,2.328 -6.436,6.984 -6.436,6.984 -1.248,1.51 -1.293,4.018 -0.102,5.57 0,0 1.662,2.166 6.265,6.074 4.604,3.91 5.886,4.645 5.886,4.645 1.662,0.945 4.106,0.637 5.511,-0.67 l -2.938,-2.98 c -1.825,-1.855 -1.813,-4.861 0.028,-6.703 l 5.223,-5.223 c 0.896,-0.896 2.09,-1.391 3.358,-1.391 1.271,0 2.464,0.494 3.359,1.391 l 2.928,2.926 c 1.23,-1.421 1.567,-3.812 0.723,-5.474 z m -18.808,4.106 c -2.625,0 -4.751,-2.127 -4.751,-4.752 0,-2.623 2.126,-4.75 4.751,-4.75 2.623,0 4.749,2.127 4.749,4.75 0,2.625 -2.126,4.752 -4.749,4.752 z"
             inkscape:connector-curvature="0"
             style="fill:#000000" />
          <path
             id="path5591"
             d="m 352.01,635.085 -19.4,-19.4 c -0.46,-0.461 -1.218,-0.461 -1.679,0 l -0.783,0.781 20.004,19.826 v 2.527 h -2.127 l -20.113,-20.117 -2.204,2.205 c -0.462,0.461 -0.464,1.221 -0.007,1.686 l 18.078,18.346 c 0.457,0.469 1.367,0.85 2.021,0.85 h 4.082 c 0.653,0 1.343,-0.514 1.534,-1.139 l 1.088,-3.592 c 0.19,-0.623 -0.032,-1.514 -0.494,-1.973 z"
             inkscape:connector-curvature="0"
             style="fill:#000000" />
        </g>
      </g>
    </g>
  </g>
</svg>
